<svg width="11" height="7" viewBox="0 0 11 7" fill="none" xmlns="http://www.w3.org/2000/svg">
<path d="M5.70918 6.50966C5.83354 6.50966 5.95418 6.48634 6.07108 6.4397C6.18798 6.39306 6.28499 6.33088 6.36209 6.25315L10.6527 1.96257C10.8237 1.79157 10.9092 1.57393 10.9092 1.30965C10.9092 1.04538 10.8237 0.827741 10.6527 0.65674C10.4817 0.485738 10.264 0.400238 9.99976 0.400238C9.73549 0.400238 9.51785 0.485738 9.34685 0.65674L5.70918 4.29441L2.07151 0.65674C1.90051 0.485738 1.68287 0.400238 1.4186 0.400238C1.15432 0.400238 0.936685 0.485738 0.765682 0.65674C0.594681 0.827741 0.509179 1.04538 0.509179 1.30965C0.509179 1.57393 0.594681 1.79157 0.765682 1.96257L5.05627 6.25315C5.14954 6.34643 5.25059 6.41265 5.3594 6.45183C5.46822 6.491 5.58482 6.51028 5.70918 6.50966Z" fill="#4D4D4D"/>
</svg>
