<svg width="20" height="13" viewBox="0 0 20 13" fill="none" xmlns="http://www.w3.org/2000/svg">
<path d="M10 12.0588C15.9632 12.0588 20 7.45493 20 6.02589C20 4.60389 15.9559 0 10 0C4.11765 0 0 4.60389 0 6.02589C0 7.45493 4.11765 12.0588 10 12.0588ZM10 9.87655C7.75735 9.87655 5.97059 8.12369 5.95588 6.03293C5.94853 3.87882 7.75735 2.17523 10 2.17523C12.2353 2.17523 14.0441 3.87882 14.0441 6.03293C14.0441 8.12369 12.2353 9.87655 10 9.87655ZM10 7.46197C10.8309 7.46197 11.5074 6.81433 11.5074 6.03293C11.5074 5.2445 10.8309 4.58982 10 4.58982C9.16912 4.58982 8.49265 5.2445 8.49265 6.03293C8.49265 6.81433 9.16912 7.46197 10 7.46197Z" fill="#4D4D4D" fill-opacity="0.9"/>
</svg>
