<svg width="17" height="15" viewBox="0 0 17 15" fill="none" xmlns="http://www.w3.org/2000/svg">
<path d="M4.21497 6.65397L14.1291 6.65397L12.6707 5.16689C12.5651 5.05817 12.5046 4.9094 12.5046 4.75292C12.5046 4.59629 12.5652 4.4474 12.671 4.33864C12.7766 4.23012 12.9184 4.17044 13.0648 4.17044C13.2111 4.17044 13.3529 4.23012 13.4585 4.33864L15.8721 6.8188L15.8728 6.81952C15.9254 6.87306 15.9674 6.93711 15.9962 7.00817C16.025 7.07924 16.0399 7.15569 16.0399 7.23307C16.0399 7.31044 16.025 7.3869 15.9962 7.45797C15.9674 7.52903 15.9254 7.59308 15.8728 7.64662L13.4585 10.1275L13.4578 10.1282C13.4057 10.1822 13.3441 10.2247 13.2767 10.2535C13.2094 10.2824 13.1373 10.2971 13.0648 10.2971C12.9922 10.2971 12.9202 10.2824 12.8528 10.2535C12.7854 10.2247 12.7238 10.1822 12.6717 10.1282L12.6703 10.1268C12.6178 10.0732 12.5757 10.0092 12.5469 9.93812C12.5181 9.86705 12.5032 9.79059 12.5032 9.71322C12.5032 9.63584 12.5181 9.55939 12.5469 9.48832C12.5757 9.41726 12.6178 9.35316 12.6704 9.29963L14.1291 7.81217L4.21497 7.81217C4.06947 7.81217 3.92853 7.75284 3.82354 7.64495C3.71832 7.53683 3.65806 7.3888 3.65806 7.23307C3.65806 7.07734 3.71832 6.9293 3.82354 6.82119C3.92853 6.7133 4.06947 6.65397 4.21497 6.65397Z" fill="white"/>
<path d="M10.4036 10.5399V12.1934C10.4036 12.7876 10.1738 13.3562 9.76681 13.7744C9.36006 14.1924 8.80985 14.4259 8.23761 14.4259H2.60591C2.03367 14.4259 1.48345 14.1924 1.0767 13.7744C0.669731 13.3562 0.439941 12.7876 0.439941 12.1934V2.27277C0.439941 1.67852 0.669731 1.10993 1.0767 0.691733C1.48345 0.273766 2.03367 0.0402374 2.60591 0.0402374H8.23761C8.80985 0.0402374 9.36006 0.273766 9.76681 0.691733C10.1738 1.10993 10.4036 1.67852 10.4036 2.27277V3.9262C10.4036 4.08193 10.3433 4.22997 10.2381 4.33808C10.1331 4.44597 9.99216 4.5053 9.84667 4.5053C9.70117 4.5053 9.56023 4.44597 9.45524 4.33808C9.35002 4.22997 9.28976 4.08193 9.28976 3.9262V2.27277C9.28976 1.98998 9.1805 1.71746 8.98395 1.5155C8.78719 1.3133 8.51886 1.19843 8.23761 1.19843H2.60591C2.32465 1.19843 2.05633 1.3133 1.85956 1.5155C1.66302 1.71746 1.55376 1.98998 1.55376 2.27277V12.1934C1.55376 12.4762 1.66302 12.7487 1.85956 12.9506C2.05633 13.1528 2.32466 13.2677 2.60591 13.2677H8.23761C8.51886 13.2677 8.78719 13.1528 8.98395 12.9506C9.1805 12.7487 9.28976 12.4762 9.28976 12.1934V10.5399C9.28976 10.3842 9.35002 10.2362 9.45524 10.1281C9.56023 10.0202 9.70117 9.96084 9.84667 9.96084C9.99216 9.96084 10.1331 10.0202 10.2381 10.1281C10.3433 10.2362 10.4036 10.3842 10.4036 10.5399Z" fill="white"/>
</svg>
