<svg width="14" height="16" viewBox="0 0 14 16" fill="none" xmlns="http://www.w3.org/2000/svg">
<path fill-rule="evenodd" clip-rule="evenodd" d="M12.4465 12.7556C13.1766 12.7556 13.6363 12.3051 13.6363 11.6439C13.6363 10.8519 13.0008 10.1907 12.3856 9.57308C11.8947 9.08874 11.7851 8.04345 11.6775 7.01675L11.6758 7.00093C11.5474 4.41425 10.7902 2.55417 9.07317 1.8857C8.77572 0.926592 8.01859 0.199997 7.01808 0.199997C6.01758 0.199997 5.26045 0.926592 4.963 1.8857C3.24592 2.55417 2.48879 4.41425 2.36034 7.00093L2.35869 7.01675C2.25107 8.04345 2.1415 9.08874 1.65053 9.57308C1.0286 10.1907 0.399902 10.8519 0.399902 11.6439C0.399902 12.3051 0.859592 12.7556 1.58969 12.7556H12.4465ZM9.22865 13.7873C9.22734 13.8034 9.22586 13.8195 9.22419 13.8356C9.18536 14.2102 9.0502 14.565 8.83829 14.8673C8.44954 15.4219 7.80251 15.8 7.01808 15.8C6.23366 15.8 5.58388 15.4219 5.19489 14.8673C4.98285 14.565 4.8483 14.2102 4.81168 13.8356C4.81011 13.8195 4.80872 13.8034 4.80752 13.7873H9.22865ZM2.41034 10.3406C2.88457 9.87195 3.09007 9.23161 3.20346 8.72904C3.31886 8.21749 3.37852 7.64773 3.42969 7.15907C3.43129 7.14381 3.43288 7.12863 3.43446 7.11353L3.43755 7.08407L3.43902 7.05449C3.56324 4.55277 4.27601 3.3121 5.35481 2.89212L5.84023 2.70314L5.99453 2.20561C6.19292 1.56592 6.61636 1.28 7.01808 1.28C7.41981 1.28 7.84325 1.56592 8.04164 2.20561L8.19594 2.70314L8.68136 2.89212C9.76016 3.3121 10.4729 4.55277 10.5972 7.05449L10.5986 7.08407L10.6017 7.11353C10.6033 7.12864 10.6049 7.14383 10.6065 7.1591C10.6576 7.64775 10.7173 8.2175 10.8327 8.72904C10.9459 9.23069 11.1509 9.86961 11.6232 10.338C11.9373 10.6534 12.1809 10.9075 12.3529 11.1567C12.5197 11.3984 12.5563 11.548 12.5563 11.6439C12.5563 11.6517 12.556 11.6585 12.5556 11.6644C12.5341 11.6697 12.4987 11.6756 12.4465 11.6756H1.58969C1.5375 11.6756 1.50204 11.6697 1.48057 11.6644C1.48017 11.6585 1.4799 11.6517 1.4799 11.6439C1.4799 11.5452 1.51696 11.3948 1.68179 11.1552C1.85197 10.9078 2.09547 10.6533 2.41034 10.3406Z" fill="white"/>
</svg>
