<svg width="16" height="16" viewBox="0 0 16 16" fill="none" xmlns="http://www.w3.org/2000/svg">
<path fill-rule="evenodd" clip-rule="evenodd" d="M7.93987 4.45976C7.25162 4.45978 6.57882 4.66387 6.00655 5.04625C5.43427 5.42864 4.98823 5.97214 4.72484 6.60802C4.46144 7.24391 4.39253 7.94362 4.52681 8.61868C4.66108 9.29373 4.99252 9.91381 5.47921 10.4005C5.96589 10.8872 6.58597 11.2186 7.26102 11.3529C7.93608 11.4872 8.63579 11.4183 9.27168 11.1549C9.90756 10.8915 10.4511 10.4454 10.8335 9.87315C11.2158 9.3009 11.4199 8.62813 11.4199 7.9399C11.4189 7.01723 11.0519 6.13265 10.3995 5.48023C9.74706 4.82782 8.86252 4.46083 7.93987 4.45976ZM9.64395 9.64378C9.192 10.0957 8.57923 10.35 7.94007 10.3507C7.46324 10.3507 6.99698 10.2093 6.60051 9.94436C6.20404 9.67944 5.89502 9.30291 5.71255 8.86238C5.53007 8.42184 5.48233 7.93709 5.57535 7.46942C5.66838 7.00175 5.898 6.57216 6.23517 6.23499C6.57234 5.89782 7.00192 5.6682 7.46959 5.57518C7.93726 5.48215 8.42202 5.5299 8.86255 5.71237C9.30309 5.89485 9.67962 6.20386 9.94453 6.60033C10.2094 6.9968 10.3508 7.46306 10.3508 7.9399C10.3501 8.57905 10.0959 9.19182 9.64395 9.64378Z" fill="white"/>
<path fill-rule="evenodd" clip-rule="evenodd" d="M15.5702 10.2198L14.4391 9.33967L14.4475 9.30224C14.6407 8.44366 14.6407 7.55633 14.4475 6.69776L14.4391 6.66032L15.5702 5.7802C15.686 5.69056 15.7636 5.5654 15.79 5.42772C15.8163 5.29009 15.7901 5.14789 15.7154 5.0264L14.5853 3.17634C14.5113 3.05437 14.3932 2.96039 14.2516 2.91238C14.1099 2.86436 13.9547 2.86559 13.814 2.91584L12.4448 3.40071L12.4182 3.37804C11.7286 2.78911 10.9148 2.34448 10.0302 2.07351L9.99478 2.06266L9.7539 0.697423C9.72997 0.559334 9.65463 0.432889 9.54047 0.341475C9.42624 0.250003 9.28074 0.199612 9.13001 0.199999L6.86988 0.199999C6.71916 0.199616 6.57352 0.250006 6.45929 0.341472C6.34513 0.432879 6.26982 0.559133 6.24587 0.697216L6.0051 2.06266L5.9697 2.07351C5.08507 2.34447 4.27128 2.7891 3.58166 3.37804L3.55511 3.40071L2.18591 2.91583C2.04517 2.86561 1.88984 2.86435 1.74823 2.91238C1.60666 2.96039 1.48862 3.05421 1.41459 3.17616L0.284516 5.02636C0.209889 5.14786 0.183584 5.29019 0.209971 5.42781C0.236369 5.5655 0.313902 5.69056 0.429668 5.78017L1.56081 6.66032L1.55239 6.69776C1.3592 7.55633 1.3592 8.44366 1.55239 9.30224L1.56081 9.33967L0.429682 10.2198C0.313934 10.3094 0.236312 10.4346 0.209932 10.5723C0.183562 10.7099 0.209801 10.8521 0.284436 10.9736L1.41454 12.8237C1.48857 12.9456 1.60672 13.0396 1.74832 13.0876C1.88995 13.1356 2.04516 13.1344 2.1859 13.0842L3.55515 12.5993L3.58169 12.622C4.27131 13.2109 5.0851 13.6555 5.96973 13.9265L6.00514 13.9373L6.24588 15.3026C6.26981 15.4407 6.34515 15.5671 6.4593 15.6585C6.57352 15.75 6.71901 15.8004 6.86973 15.8L9.12986 15.8C9.28058 15.8004 9.42623 15.75 9.54046 15.6585C9.65462 15.5671 9.72993 15.4409 9.75387 15.3028L9.99467 13.9373L10.0301 13.9265C10.9147 13.6555 11.7285 13.2109 12.4181 12.622L12.4447 12.5993L13.8138 13.0842C13.9546 13.1344 14.1099 13.1356 14.2515 13.0876C14.3931 13.0396 14.5111 12.9458 14.5851 12.8238L15.7152 10.9736C15.7898 10.8522 15.8162 10.7099 15.7898 10.5723C15.7635 10.4346 15.6859 10.3094 15.5702 10.2198ZM13.8788 12.1162L12.2006 11.5219L11.9751 11.7365C11.2728 12.4056 10.3947 12.8851 9.43154 13.1261L9.12309 13.203L8.82847 14.8729H7.17154L6.87703 13.203L6.56863 13.1261C5.60548 12.8852 4.72735 12.4056 4.02507 11.7365L3.79953 11.5219L2.121 12.1162L1.28971 10.755L2.67324 9.67844L2.59093 9.39108C2.33054 8.48007 2.33053 7.51996 2.59093 6.60894L2.67324 6.32159L1.28971 5.24502L2.12118 3.88377L3.79942 4.47807L4.02494 4.26347C4.72722 3.59441 5.60531 3.11485 6.56847 2.8739L6.87693 2.79704L7.1714 1.12713H8.82847L9.12298 2.79704L9.43138 2.87388C10.3945 3.11483 11.2727 3.5944 11.9749 4.26345L12.2005 4.47807L13.8787 3.88377L14.7102 5.24499L13.3267 6.32159L13.409 6.60891C13.6694 7.51993 13.6694 8.48003 13.409 9.39105L13.3267 9.67844L14.7102 10.755L13.8788 12.1162Z" fill="white"/>
</svg>
